<svg xmlns="http://www.w3.org/2000/svg" width="800" height="500" viewBox="0 0 800 500" font-family="Segoe UI, Arial, sans-serif">
  <defs>
    <radialGradient id="gA" cx="50%" cy="50%" r="50%">
      <stop offset="0%" stop-color="#7f40ff" stop-opacity="0.28"/>
      <stop offset="60%" stop-color="#7f40ff" stop-opacity="0.10"/>
      <stop offset="100%" stop-color="#7f40ff" stop-opacity="0"/>
    </radialGradient>
    <radialGradient id="gB" cx="50%" cy="50%" r="50%">
      <stop offset="0%" stop-color="#aa42ff" stop-opacity="0.22"/>
      <stop offset="100%" stop-color="#aa42ff" stop-opacity="0"/>
    </radialGradient>
    <linearGradient id="sweep" x1="184" y1="146" x2="162" y2="212" gradientUnits="userSpaceOnUse">
      <stop offset="0%" stop-color="#c2a4ff" stop-opacity="0"/>
      <stop offset="100%" stop-color="#c2a4ff" stop-opacity="0.5"/>
    </linearGradient>
    <linearGradient id="barGrad" x1="0" y1="0" x2="1" y2="0">
      <stop offset="0%" stop-color="#7f40ff"/>
      <stop offset="100%" stop-color="#c2a4ff"/>
    </linearGradient>
    <pattern id="dotGrid" width="18" height="18" patternUnits="userSpaceOnUse">
      <circle cx="1" cy="1" r="0.9" fill="rgba(194,164,255,0.06)"/>
    </pattern>
    <filter id="softGlow" x="-80%" y="-80%" width="260%" height="260%">
      <feGaussianBlur in="SourceGraphic" stdDeviation="2.5" result="b"/>
      <feMerge><feMergeNode in="b"/><feMergeNode in="SourceGraphic"/></feMerge>
    </filter>
  </defs>

  <!-- page background -->
  <rect x="0" y="0" width="800" height="500" fill="#0d0a12"/>
  <rect x="0" y="0" width="800" height="500" fill="url(#dotGrid)"/>
  <circle cx="660" cy="55" r="240" fill="url(#gA)"/>
  <circle cx="110" cy="465" r="210" fill="url(#gB)"/>

  <!-- window chrome -->
  <rect x="12" y="10" width="776" height="478" rx="14" fill="#16121e" stroke="rgba(194,164,255,0.18)"/>
  <line x1="12" y1="42" x2="788" y2="42" stroke="rgba(194,164,255,0.14)"/>
  <circle cx="32" cy="26" r="5" fill="#f87171"/>
  <circle cx="50" cy="26" r="5" fill="#fbbf24"/>
  <circle cx="68" cy="26" r="5" fill="#6ee7a0"/>
  <rect x="84" y="17" width="80" height="18" rx="9" fill="rgba(127,64,255,0.16)" stroke="rgba(194,164,255,0.45)"/>
  <text x="124" y="29.5" text-anchor="middle" font-size="9" font-weight="700" letter-spacing="2" fill="#c2a4ff">XEYRESH</text>
  <text x="400" y="30" text-anchor="middle" font-size="11" font-weight="600" fill="#eae5ec">xeyresh — Web Vulnerability Scanner</text>
  <text x="688" y="29.5" text-anchor="end" font-size="9" fill="#837c92">open-source · v2.4.1</text>
  <rect x="698" y="17" width="76" height="18" rx="9" fill="rgba(110,231,160,0.10)" stroke="rgba(110,231,160,0.45)"/>
  <circle cx="710" cy="26" r="3" fill="#6ee7a0" filter="url(#softGlow)"/>
  <text x="718" y="29.5" font-size="9" font-weight="600" fill="#6ee7a0">SCANNING</text>

  <!-- ============ LEFT: target / radar panel ============ -->
  <rect x="24" y="50" width="208" height="364" rx="12" fill="#1a1524" stroke="rgba(194,164,255,0.18)"/>
  <text x="36" y="68" font-size="9" letter-spacing="1.5" fill="#837c92">TARGET</text>
  <rect x="184" y="57" width="40" height="14" rx="7" fill="rgba(110,231,160,0.10)" stroke="rgba(110,231,160,0.4)"/>
  <circle cx="193" cy="64" r="2.5" fill="#6ee7a0"/>
  <text x="199" y="67.5" font-size="9" fill="#6ee7a0">LIVE</text>
  <text x="36" y="85" font-size="10" font-family="Consolas, 'Courier New', monospace"><tspan fill="#837c92">target: </tspan><tspan fill="#c2a4ff">app.example.com</tspan></text>
  <text x="36" y="98" font-size="9" fill="#837c92">https · cookie auth · crawl depth 4</text>

  <!-- radar rings -->
  <circle cx="128" cy="172" r="90" fill="url(#gB)" opacity="0.7"/>
  <circle cx="128" cy="172" r="18" fill="none" stroke="rgba(194,164,255,0.14)"/>
  <circle cx="128" cy="172" r="34" fill="none" stroke="rgba(194,164,255,0.14)"/>
  <circle cx="128" cy="172" r="50" fill="none" stroke="rgba(194,164,255,0.14)"/>
  <circle cx="128" cy="172" r="62" fill="none" stroke="rgba(194,164,255,0.30)"/>
  <line x1="66" y1="172" x2="190" y2="172" stroke="rgba(194,164,255,0.12)" stroke-dasharray="3 3"/>
  <line x1="128" y1="110" x2="128" y2="234" stroke="rgba(194,164,255,0.12)" stroke-dasharray="3 3"/>
  <g stroke="rgba(194,164,255,0.35)">
    <line x1="128" y1="110" x2="128" y2="115"/>
    <line x1="128" y1="110" x2="128" y2="115" transform="rotate(45 128 172)"/>
    <line x1="128" y1="110" x2="128" y2="115" transform="rotate(90 128 172)"/>
    <line x1="128" y1="110" x2="128" y2="115" transform="rotate(135 128 172)"/>
    <line x1="128" y1="110" x2="128" y2="115" transform="rotate(180 128 172)"/>
    <line x1="128" y1="110" x2="128" y2="115" transform="rotate(225 128 172)"/>
    <line x1="128" y1="110" x2="128" y2="115" transform="rotate(270 128 172)"/>
    <line x1="128" y1="110" x2="128" y2="115" transform="rotate(315 128 172)"/>
  </g>
  <!-- sweep wedge + beam -->
  <path d="M128 172 L184.2 145.8 A62 62 0 0 1 178.8 207.6 Z" fill="url(#sweep)" opacity="0.85"/>
  <line x1="128" y1="172" x2="178.8" y2="207.6" stroke="#c2a4ff" stroke-width="1.5" filter="url(#softGlow)"/>
  <!-- eye motif -->
  <ellipse cx="128" cy="172" rx="13" ry="7.5" fill="none" stroke="#c2a4ff" stroke-width="1.2"/>
  <circle cx="128" cy="172" r="3.4" fill="#7f40ff" filter="url(#softGlow)"/>
  <circle cx="128" cy="172" r="1.2" fill="#eae5ec"/>
  <!-- blips -->
  <circle cx="151" cy="150" r="3" fill="#f87171" filter="url(#softGlow)"/>
  <circle cx="151" cy="150" r="7" fill="none" stroke="#f87171" opacity="0.4"/>
  <circle cx="103" cy="193" r="2.5" fill="#fbbf24"/>
  <circle cx="142" cy="205" r="2.5" fill="#6ee7a0"/>
  <circle cx="110" cy="142" r="2.5" fill="#aa42ff"/>

  <!-- target stats -->
  <text x="36" y="258" font-size="9" fill="#837c92">endpoints crawled</text>
  <text x="220" y="258" text-anchor="end" font-size="10" fill="#eae5ec">214</text>
  <line x1="36" y1="266" x2="220" y2="266" stroke="rgba(194,164,255,0.08)"/>
  <text x="36" y="280" font-size="9" fill="#837c92">params fuzzed</text>
  <text x="220" y="280" text-anchor="end" font-size="10" fill="#eae5ec">1,208</text>
  <line x1="36" y1="288" x2="220" y2="288" stroke="rgba(194,164,255,0.08)"/>
  <text x="36" y="302" font-size="9" fill="#837c92">auth mode</text>
  <text x="220" y="302" text-anchor="end" font-size="10" fill="#eae5ec">session cookie</text>
  <line x1="36" y1="310" x2="220" y2="310" stroke="rgba(194,164,255,0.08)"/>
  <text x="36" y="324" font-size="9" fill="#837c92">waf detected</text>
  <text x="220" y="324" text-anchor="end" font-size="10" fill="#fbbf24">cloudflare</text>
  <!-- method chips -->
  <rect x="36" y="338" width="34" height="16" rx="8" fill="rgba(194,164,255,0.06)" stroke="rgba(194,164,255,0.25)"/>
  <text x="53" y="349.5" text-anchor="middle" font-size="9" fill="#837c92">GET</text>
  <rect x="74" y="338" width="40" height="16" rx="8" fill="rgba(194,164,255,0.06)" stroke="rgba(194,164,255,0.25)"/>
  <text x="94" y="349.5" text-anchor="middle" font-size="9" fill="#837c92">POST</text>
  <rect x="118" y="338" width="66" height="16" rx="8" fill="rgba(194,164,255,0.06)" stroke="rgba(194,164,255,0.25)"/>
  <text x="151" y="349.5" text-anchor="middle" font-size="9" fill="#837c92">FORMS 37</text>
  <!-- coverage -->
  <text x="36" y="374" font-size="9" fill="#837c92">coverage</text>
  <text x="220" y="374" text-anchor="end" font-size="10" font-weight="600" fill="#c2a4ff">82%</text>
  <rect x="36" y="380" width="184" height="6" rx="3" fill="rgba(194,164,255,0.10)"/>
  <rect x="36" y="380" width="151" height="6" rx="3" fill="url(#barGrad)" filter="url(#softGlow)"/>
  <text x="36" y="402" font-size="9" fill="#837c92">next: auth bypass suite · 42 checks queued</text>

  <!-- ============ CENTER: live findings ============ -->
  <rect x="240" y="50" width="280" height="210" rx="12" fill="#1a1524" stroke="rgba(194,164,255,0.18)"/>
  <text x="252" y="68" font-size="9" letter-spacing="1.5" fill="#837c92">LIVE FINDINGS</text>
  <circle cx="340" cy="64" r="3" fill="#aa42ff" filter="url(#softGlow)"/>
  <rect x="448" y="56" width="60" height="16" rx="8" fill="rgba(170,66,255,0.15)" stroke="rgba(170,66,255,0.45)"/>
  <text x="478" y="67.5" text-anchor="middle" font-size="9" fill="#c2a4ff">18 total</text>

  <!-- row 1: XSS HIGH -->
  <rect x="252" y="78" width="256" height="38" rx="8" fill="#16121e" stroke="rgba(194,164,255,0.10)"/>
  <rect x="256" y="85" width="3" height="24" rx="1.5" fill="#aa42ff"/>
  <text x="266" y="94" font-size="10.5" font-weight="600" fill="#eae5ec">Reflected XSS</text>
  <text x="266" y="108" font-size="9" font-family="Consolas, 'Courier New', monospace" fill="#837c92">GET /search?q=&lt;script&gt;alert(1)</text>
  <rect x="444" y="84" width="58" height="14" rx="7" fill="rgba(170,66,255,0.14)" stroke="rgba(170,66,255,0.55)"/>
  <text x="473" y="94.5" text-anchor="middle" font-size="9" font-weight="700" fill="#aa42ff">HIGH</text>
  <text x="502" y="109" text-anchor="end" font-size="9" fill="#837c92">conf 96%</text>

  <!-- row 2: SQLi CRITICAL -->
  <rect x="252" y="122" width="256" height="38" rx="8" fill="#16121e" stroke="rgba(248,113,113,0.28)"/>
  <rect x="256" y="129" width="3" height="24" rx="1.5" fill="#f87171"/>
  <text x="266" y="138" font-size="10.5" font-weight="600" fill="#eae5ec">SQL Injection</text>
  <text x="266" y="152" font-size="9" font-family="Consolas, 'Courier New', monospace" fill="#837c92">POST /api/login · param: user</text>
  <rect x="444" y="128" width="58" height="14" rx="7" fill="rgba(248,113,113,0.14)" stroke="rgba(248,113,113,0.6)"/>
  <text x="473" y="138.5" text-anchor="middle" font-size="9" font-weight="700" fill="#f87171">CRITICAL</text>
  <text x="502" y="153" text-anchor="end" font-size="9" fill="#837c92">conf 99%</text>

  <!-- row 3: CSRF MEDIUM -->
  <rect x="252" y="166" width="256" height="38" rx="8" fill="#16121e" stroke="rgba(194,164,255,0.10)"/>
  <rect x="256" y="173" width="3" height="24" rx="1.5" fill="#fbbf24"/>
  <text x="266" y="182" font-size="10.5" font-weight="600" fill="#eae5ec">CSRF token missing</text>
  <text x="266" y="196" font-size="9" font-family="Consolas, 'Courier New', monospace" fill="#837c92">POST /account/update</text>
  <rect x="444" y="172" width="58" height="14" rx="7" fill="rgba(251,191,36,0.12)" stroke="rgba(251,191,36,0.55)"/>
  <text x="473" y="182.5" text-anchor="middle" font-size="9" font-weight="700" fill="#fbbf24">MEDIUM</text>
  <text x="502" y="197" text-anchor="end" font-size="9" fill="#837c92">conf 91%</text>

  <!-- row 4: Open redirect LOW -->
  <rect x="252" y="210" width="256" height="38" rx="8" fill="#16121e" stroke="rgba(194,164,255,0.10)"/>
  <rect x="256" y="217" width="3" height="24" rx="1.5" fill="#6ee7a0"/>
  <text x="266" y="226" font-size="10.5" font-weight="600" fill="#eae5ec">Open redirect</text>
  <text x="266" y="240" font-size="9" font-family="Consolas, 'Courier New', monospace" fill="#837c92">GET /out?url=//evil.example</text>
  <rect x="444" y="216" width="58" height="14" rx="7" fill="rgba(110,231,160,0.12)" stroke="rgba(110,231,160,0.55)"/>
  <text x="473" y="226.5" text-anchor="middle" font-size="9" font-weight="700" fill="#6ee7a0">LOW</text>
  <text x="502" y="241" text-anchor="end" font-size="9" fill="#837c92">conf 88%</text>

  <!-- code snippet card -->
  <rect x="240" y="268" width="280" height="146" rx="12" fill="#1a1524" stroke="rgba(194,164,255,0.18)"/>
  <text x="252" y="285" font-size="9.5" font-family="Consolas, 'Courier New', monospace" fill="#837c92">app/db/users.py</text>
  <rect x="428" y="272" width="80" height="15" rx="7" fill="rgba(248,113,113,0.12)" stroke="rgba(248,113,113,0.5)"/>
  <text x="468" y="283" text-anchor="middle" font-size="9" font-weight="600" fill="#f87171">SQLI TRACE</text>
  <line x1="240" y1="292" x2="520" y2="292" stroke="rgba(194,164,255,0.12)"/>
  <text x="264" y="310" text-anchor="end" font-size="9" font-family="Consolas, 'Courier New', monospace" fill="#837c92">41</text>
  <text x="272" y="310" font-size="10" font-family="Consolas, 'Courier New', monospace"><tspan fill="#aa42ff">def</tspan><tspan fill="#eae5ec"> get_user(uid):</tspan></text>
  <text x="264" y="328" text-anchor="end" font-size="9" font-family="Consolas, 'Courier New', monospace" fill="#837c92">42</text>
  <text x="272" y="328" font-size="10" font-family="Consolas, 'Courier New', monospace"><tspan fill="#eae5ec">  q = (</tspan><tspan fill="#6ee7a0">"SELECT * FROM users"</tspan></text>
  <rect x="248" y="333" width="264" height="18" fill="rgba(248,113,113,0.10)" stroke="rgba(248,113,113,0.35)"/>
  <text x="264" y="346" text-anchor="end" font-size="9" font-family="Consolas, 'Courier New', monospace" fill="#f87171">43</text>
  <text x="272" y="346" font-size="10" font-family="Consolas, 'Courier New', monospace"><tspan fill="#eae5ec">       </tspan><tspan fill="#6ee7a0">" WHERE id="</tspan><tspan fill="#eae5ec"> </tspan><tspan fill="#f87171">+ uid</tspan><tspan fill="#eae5ec">)</tspan></text>
  <line x1="390" y1="349.5" x2="424" y2="349.5" stroke="#f87171" stroke-width="1.5"/>
  <text x="264" y="364" text-anchor="end" font-size="9" font-family="Consolas, 'Courier New', monospace" fill="#837c92">44</text>
  <text x="272" y="364" font-size="10" font-family="Consolas, 'Courier New', monospace"><tspan fill="#eae5ec">  </tspan><tspan fill="#aa42ff">return</tspan><tspan fill="#eae5ec"> db.execute(q)</tspan></text>
  <text x="272" y="386" font-size="9" fill="#f87171">▲ tainted request param concatenated into SQL string</text>
  <text x="272" y="400" font-size="9" fill="#837c92">fix: parameterize — db.execute(q, [uid])</text>

  <!-- ============ RIGHT: severity summary ============ -->
  <rect x="528" y="50" width="248" height="364" rx="12" fill="#1a1524" stroke="rgba(194,164,255,0.18)"/>
  <text x="540" y="68" font-size="9" letter-spacing="1.5" fill="#837c92">SEVERITY SUMMARY</text>
  <text x="764" y="68" text-anchor="end" font-size="9" fill="#837c92">updated 2s ago</text>
  <!-- donut: 18 total = C2 H3 M5 L8 -->
  <circle cx="598" cy="148" r="44" fill="none" stroke="rgba(194,164,255,0.08)" stroke-width="13"/>
  <circle cx="598" cy="148" r="44" fill="none" stroke="#f87171" stroke-width="13" stroke-dasharray="27.7 276.5" transform="rotate(-90 598 148)"/>
  <circle cx="598" cy="148" r="44" fill="none" stroke="#aa42ff" stroke-width="13" stroke-dasharray="43.1 276.5" transform="rotate(-50 598 148)"/>
  <circle cx="598" cy="148" r="44" fill="none" stroke="#fbbf24" stroke-width="13" stroke-dasharray="73.8 276.5" transform="rotate(10 598 148)"/>
  <circle cx="598" cy="148" r="44" fill="none" stroke="#6ee7a0" stroke-width="13" stroke-dasharray="119.9 276.5" transform="rotate(110 598 148)"/>
  <text x="598" y="147" text-anchor="middle" font-size="20" font-weight="700" fill="#eae5ec">18</text>
  <text x="598" y="161" text-anchor="middle" font-size="9" fill="#837c92">findings</text>
  <!-- legend -->
  <circle cx="672" cy="109" r="4" fill="#f87171"/>
  <text x="682" y="112.5" font-size="9.5" fill="#eae5ec">Critical</text>
  <text x="762" y="112.5" text-anchor="end" font-size="10" font-weight="700" fill="#f87171">2</text>
  <circle cx="672" cy="134" r="4" fill="#aa42ff"/>
  <text x="682" y="137.5" font-size="9.5" fill="#eae5ec">High</text>
  <text x="762" y="137.5" text-anchor="end" font-size="10" font-weight="700" fill="#aa42ff">3</text>
  <circle cx="672" cy="159" r="4" fill="#fbbf24"/>
  <text x="682" y="162.5" font-size="9.5" fill="#eae5ec">Medium</text>
  <text x="762" y="162.5" text-anchor="end" font-size="10" font-weight="700" fill="#fbbf24">5</text>
  <circle cx="672" cy="184" r="4" fill="#6ee7a0"/>
  <text x="682" y="187.5" font-size="9.5" fill="#eae5ec">Low</text>
  <text x="762" y="187.5" text-anchor="end" font-size="10" font-weight="700" fill="#6ee7a0">8</text>

  <line x1="540" y1="212" x2="764" y2="212" stroke="rgba(194,164,255,0.10)"/>
  <text x="540" y="230" font-size="9" letter-spacing="1.5" fill="#837c92">RISK DISTRIBUTION</text>
  <!-- bars -->
  <text x="540" y="250" font-size="9" fill="#837c92">Critical</text>
  <rect x="596" y="243" width="140" height="7" rx="3.5" fill="rgba(194,164,255,0.08)"/>
  <rect x="596" y="243" width="35" height="7" rx="3.5" fill="#f87171"/>
  <text x="764" y="250" text-anchor="end" font-size="9.5" fill="#eae5ec">2</text>
  <text x="540" y="272" font-size="9" fill="#837c92">High</text>
  <rect x="596" y="265" width="140" height="7" rx="3.5" fill="rgba(194,164,255,0.08)"/>
  <rect x="596" y="265" width="53" height="7" rx="3.5" fill="#aa42ff"/>
  <text x="764" y="272" text-anchor="end" font-size="9.5" fill="#eae5ec">3</text>
  <text x="540" y="294" font-size="9" fill="#837c92">Medium</text>
  <rect x="596" y="287" width="140" height="7" rx="3.5" fill="rgba(194,164,255,0.08)"/>
  <rect x="596" y="287" width="88" height="7" rx="3.5" fill="#fbbf24"/>
  <text x="764" y="294" text-anchor="end" font-size="9.5" fill="#eae5ec">5</text>
  <text x="540" y="316" font-size="9" fill="#837c92">Low</text>
  <rect x="596" y="309" width="140" height="7" rx="3.5" fill="rgba(194,164,255,0.08)"/>
  <rect x="596" y="309" width="140" height="7" rx="3.5" fill="#6ee7a0"/>
  <text x="764" y="316" text-anchor="end" font-size="9.5" fill="#eae5ec">8</text>

  <line x1="540" y1="334" x2="764" y2="334" stroke="rgba(194,164,255,0.10)"/>
  <text x="540" y="354" font-size="9" fill="#837c92">scan progress</text>
  <text x="764" y="354" text-anchor="end" font-size="10" font-weight="600" fill="#c2a4ff">82%</text>
  <rect x="540" y="360" width="224" height="7" rx="3.5" fill="rgba(194,164,255,0.10)"/>
  <rect x="540" y="360" width="184" height="7" rx="3.5" fill="url(#barGrad)" filter="url(#softGlow)"/>
  <!-- OWASP chips -->
  <rect x="540" y="384" width="36" height="16" rx="8" fill="rgba(194,164,255,0.06)" stroke="rgba(194,164,255,0.25)"/>
  <text x="558" y="395.5" text-anchor="middle" font-size="9" fill="#837c92">A01</text>
  <rect x="582" y="384" width="36" height="16" rx="8" fill="rgba(194,164,255,0.06)" stroke="rgba(194,164,255,0.25)"/>
  <text x="600" y="395.5" text-anchor="middle" font-size="9" fill="#837c92">A03</text>
  <rect x="624" y="384" width="36" height="16" rx="8" fill="rgba(194,164,255,0.06)" stroke="rgba(194,164,255,0.25)"/>
  <text x="642" y="395.5" text-anchor="middle" font-size="9" fill="#837c92">A05</text>
  <rect x="666" y="384" width="36" height="16" rx="8" fill="rgba(194,164,255,0.06)" stroke="rgba(194,164,255,0.25)"/>
  <text x="684" y="395.5" text-anchor="middle" font-size="9" fill="#837c92">A07</text>
  <rect x="708" y="384" width="30" height="16" rx="8" fill="rgba(170,66,255,0.12)" stroke="rgba(170,66,255,0.4)"/>
  <text x="723" y="395.5" text-anchor="middle" font-size="9" fill="#c2a4ff">+3</text>

  <!-- ============ BOTTOM: terminal strip ============ -->
  <rect x="24" y="422" width="752" height="56" rx="10" fill="#0d0a12" stroke="rgba(194,164,255,0.15)"/>
  <text x="36" y="439" font-size="10" font-family="Consolas, 'Courier New', monospace"><tspan fill="#6ee7a0">$</tspan><tspan fill="#eae5ec"> xeyresh scan https://app.example.com --full</tspan></text>
  <text x="764" y="439" text-anchor="end" font-size="9" font-family="Consolas, 'Courier New', monospace" fill="#837c92">elapsed 04:12 · 3.4k req/s</text>
  <text x="36" y="454" font-size="10" font-family="Consolas, 'Courier New', monospace"><tspan fill="#c2a4ff">[*]</tspan><tspan fill="#837c92"> fuzzing 214 endpoints · 1,208 payloads · engines: xss, sqli, csrf, redirect, headers</tspan></text>
  <text x="36" y="469" font-size="10" font-family="Consolas, 'Courier New', monospace"><tspan fill="#6ee7a0">[✓]</tspan><tspan fill="#eae5ec"> crawled 214 endpoints — 18 findings — report saved report.html</tspan></text>
  <rect x="452" y="460" width="6" height="11" fill="#c2a4ff" opacity="0.9"/>

  <!-- top overlay glow -->
  <circle cx="640" cy="85" r="190" fill="url(#gA)" opacity="0.5"/>
</svg>
